<svg xmlns="http://www.w3.org/2000/svg" viewBox="0 0 339.03 239.79"><defs><style>.cls-1{fill:#f7aa32;}.cls-2{fill:#f8af41;}.cls-3{fill:#f7f4f2;}.cls-4{fill:#e99011;}.cls-5{fill:#e1d7ca;}</style></defs><g id="Calque_2" data-name="Calque 2"><g id="Calque_1-2" data-name="Calque 1"><path class="cls-1" d="M326.82,189.94c-.06.69-.12,1.38-.17,2.07-1.46,8.92-3,17.84-3.29,26.9a.54.54,0,0,0-.17.71l-1.83,5.28,0,0a1.86,1.86,0,0,0-1,1.92v0l-.82,1-.1.13-6.1,5.8h0L306,237.73l-.36,0-.26.25c-2.91.17-5.65,1.64-8.64,1.1l-1.2.25c-1.65.13-3.3.36-4.95.36q-91.83,0-183.66,0c-1.49,0-3-.18-4.46-.27,3-5.09,8.52-7.9,12-12.34,12.28-15.77,24.09-31.77,33.28-49.82,7.17-14.07,10.6-29,13.12-43.88,2.61-15.45,3.16-31.54,0-47.43-1-5.16-2.31-11.31,2.57-16a18.34,18.34,0,0,0,14.13,8c4.47.29,9,.22,13.45.21l96.43-.15A14.52,14.52,0,0,0,297,78L323.33,78l1.9.22,2.17.5L334.26,82h0l1,.9,1.06,1c1.2,3,3.1,5.7,2.57,9.35-1.25,8.53-2.15,17.11-3.19,25.68q-2.42,20-4.81,40c-.09.69-.19,1.38-.28,2.07C328.8,170.59,327.73,180.26,326.82,189.94Z"/><path class="cls-2" d="M163.33,70c-4.88,4.64-3.6,10.79-2.57,16,3.2,15.89,2.65,32,0,47.43-2.52,14.88-6,29.81-13.12,43.88-9.19,18-21,34-33.28,49.82-3.46,4.44-9,7.25-12,12.34-16.9.11-33.8.13-50.7.38-11.09.17-21.4-1.85-30.12-9.24a4.22,4.22,0,0,0-2.09-2.67l-1-1.26c-.31-.59-.63-1.18-.95-1.77-.72-3.4-1.67-6.77-2.11-10.2-1.23-9.53-2.23-19.09-3.33-28.64-.09-1-.18-2-.28-3.06.51-1.48,0-2.93-.12-4.41-1.17-10.87-2.07-21.78-3.5-32.61C6.91,135.61,6.74,125.16,4.43,115a20.64,20.64,0,0,0-.51-7c.14-6-1.28-11.93-1.81-17.92C2,89,1.91,88,1.8,87,1.47,78-.73,69.1.25,60a1.27,1.27,0,0,0,.26-.94,12.29,12.29,0,0,0,3.77-4.15L5.45,54A3.22,3.22,0,0,0,8,52.24l1.39-.4a1.81,1.81,0,0,0,2-.82l2-.27c2.88,0,1.91-2.22,1.91-3.59.07-10.72,0-21.45,0-32.18.1-.52.19-1.05.29-1.58.25-.79.51-1.58.76-2.37a.55.55,0,0,0,.22-.67c.26-.45.52-.9.79-1.35a.37.37,0,0,0,.23-.52l.93-1.43,0,0c.33-.35.66-.71,1-1.06l0,0,1-1h0l1.05-1,0,0,1.19-1a.93.93,0,0,0,.78-.35,3.15,3.15,0,0,0,.87.12l.28.32c-3,3.25-6.69,5.89-7.3,10.87-1.33,10.74-.56,21.52-.94,32.27-.14,3.85,1.24,4.88,4.87,4.7,5.3-.27,10.63-.24,15.93,0,3.31.14,4.22-1.05,4.27-4.27.07-4.91-1-9.9.69-14.74,0,4.5.44,9,.06,13.48S43.42,51,47.77,51c31.16-.21,62.31-.1,93.47-.19,7.16,0,13.19,2.24,17.1,8.34C160.46,62.46,161.7,66.35,163.33,70Z"/><path class="cls-3" d="M163.33,70c-1.63-3.63-2.87-7.52-5-10.84-3.91-6.1-9.94-8.36-17.1-8.34-31.16.09-62.31,0-93.47.19-4.35,0-6-1-5.58-5.49s0-9-.06-13.48c2.56-7,7.49-10,14.93-10,35.08.07,70.16-.06,105.24-.12,5,1.24,9.92-.14,14.88-.1,31.06.29,62.11.11,93.17.18,6.27,0,12.23,1.08,16,7a27.26,27.26,0,0,1,1.06,6.81c-.09,14.08-.06,28.17-.07,42.25l-96.43.15c-4.49,0-9,.08-13.45-.21A18.34,18.34,0,0,1,163.33,70Z"/><path class="cls-4" d="M162.3,22c-35.08.06-70.16.19-105.24.12-7.44,0-12.37,3-14.93,10-1.68,4.84-.62,9.83-.69,14.74,0,3.22-1,4.41-4.27,4.27-5.3-.23-10.63-.26-15.93,0-3.63.18-5-.85-4.87-4.7.38-10.75-.39-21.53.94-32.27.61-5,4.32-7.62,7.29-10.87A33,33,0,0,1,35.39,1.88Q86.21,2,137,1.92c4.79,0,9.6-.32,14.29,1.07h1l.06,0c4.49,3.87,6.34,9.35,8.8,14.46l-.09.3.24.21a2,2,0,0,0,.86,2.06Z"/><path class="cls-4" d="M323.33,78,297,78c0-14.31.57-28.62-.46-42.91,5.25,0,10.53-.24,15.71,1v0l4,2.14,1,.82,1.07,1h0l1,1,0,0c.32.42.65.84,1,1.27a.64.64,0,0,0,.41.71l.7,1v0a34.21,34.21,0,0,1,2,12.13C323.21,63.41,323.33,70.69,323.33,78Z"/><path class="cls-5" d="M296.53,35.11c1,14.29.43,28.6.46,42.91a14.52,14.52,0,0,1-9.65,0c0-14.08,0-28.17.07-42.25A27.26,27.26,0,0,0,286.35,29c4.09-.3,6.06,3.14,8.91,5Z"/><path class="cls-2" d="M151.32,3c-4.69-1.39-9.5-1.07-14.29-1.07q-50.82,0-101.64,0A33,33,0,0,0,24.6,3.2l-.27-.32a1.46,1.46,0,0,0,.18-.82h0l1.41-.9L27.46.8,28.9.18l.26.13L29.4.14c8.29,0,16.59,0,24.88,0L144.39,0l1.55.18,5.32,2-.06-.07A2.6,2.6,0,0,0,151.32,3Z"/><path class="cls-3" d="M16.37,11c-.25.79-.51,1.58-.76,2.37C15.45,12.48,15.44,11.6,16.37,11Z"/><path class="cls-3" d="M20.44,5l-1,1Z"/><path class="cls-3" d="M21.51,4.06,20.46,5Z"/><path class="cls-3" d="M22.68,3.11l-1.19,1Z"/><path class="cls-3" d="M335.31,82.92l-1-.9Z"/><path class="cls-3" d="M151.32,3a2.6,2.6,0,0,1-.12-.88l1.17.87Z"/><path class="cls-3" d="M24.51,2.06a1.46,1.46,0,0,1-.18.82,3.15,3.15,0,0,1-.87-.12Z"/><path class="cls-3" d="M28.9.18,27.46.8Z"/><path class="cls-3" d="M319.27,41.08l-1-1Z"/><path class="cls-3" d="M320.2,42.31c-.32-.43-.65-.85-1-1.27C319.55,41.46,319.88,41.88,320.2,42.31Z"/><path class="cls-3" d="M321.31,44l-.7-1Z"/><path class="cls-3" d="M17.38,9c-.27.45-.53.9-.79,1.35C16.85,9.91,17.11,9.46,17.38,9Z"/><path class="cls-3" d="M25.89,1.17l-1.41.9Z"/><path class="cls-3" d="M18.55,226.61l1,1.26Z"/><path class="cls-3" d="M319.47,227.92l.82-1Z"/><path class="cls-3" d="M18.54,7.06l-.93,1.43Z"/><path class="cls-3" d="M318.29,40l-1.07-1Z"/><path class="cls-3" d="M19.5,6c-.34.35-.67.71-1,1.06Z"/><path class="cls-2" d="M296.69,239.05l-1.2.25Z"/></g></g></svg>