<svg xmlns="http://www.w3.org/2000/svg" viewBox="0 0 222.08 207.99"><defs><style>.cls-1{fill:#5fbceb;}.cls-2{fill:#5ab1e4;}.cls-3{fill:#e3eff8;}.cls-4{fill:#53a1d9;}.cls-5{fill:#57a9de;}.cls-6{fill:#5db7e7;}.cls-7{fill:#498ecc;}.cls-8{fill:#ecf4fb;}.cls-9{fill:#4f99d3;}.cls-10{fill:#ddebf6;}.cls-11{fill:#417ec0;}.cls-12{fill:#3b75ba;}.cls-13{fill:#1f5aa5;}.cls-14{fill:#1b569d;}.cls-15{fill:#f6fbfe;}</style></defs><g id="Calque_2" data-name="Calque 2"><g id="Calque_1-2" data-name="Calque 1"><path class="cls-1" d="M29.08,30.17C38.43,21.34,49.24,15,61.11,10A126.21,126.21,0,0,1,118.94.27c27.9,1.77,53,10.79,74,29.87-2.14,2.42-4.8,3.1-8,3.09q-73.93-.1-147.87,0C33.9,33.24,31.23,32.57,29.08,30.17Z"/><path class="cls-2" d="M208.39,48a70.11,70.11,0,0,1,7.67,14.88c-1.09,2.6-3.38,2.26-5.53,2.26H13.41C10.72,65.16,8.1,65,6,63a55.35,55.35,0,0,1,9.81-17.91,11.53,11.53,0,0,0,6.35,2.6c6,.29,12.11.56,18.17.48,14-.18,28.13-1.66,42-.58,14.75,1.13,29.46.63,44.08.2,11.31-.34,22.63.37,34,0,11.64-.4,23.54-.12,35.3.47a15.83,15.83,0,0,0,10.78-3,.44.44,0,0,1,.33.52C206.11,47.31,207.15,47.73,208.39,48Z"/><path class="cls-3" d="M215.87,147.09a45.88,45.88,0,0,1-13.53,30.15c-6.9-2.62-14.07-.47-21-.38-8,.11-16.15-.11-24.12-.3-7.18-.18-14.43.08-21.63-.16-7.79-.25-15.71.61-23.59.66a11,11,0,0,1-4-.22c-3.82-1.55-7.15-.48-10.45,1.39-5.89-5.09-8.86-12.13-12.52-18.72-.06-4.54-2.18-8.82-1.75-13.42,4.2-1.22,8.51-1,12.8-1,4.46-.05,9,.53,13.28-1.17a1.43,1.43,0,0,1,.63.18c-.5,7.13,4.24,11.82,10.88,10.74,4.61-.75,7.2-3.75,8.66-8l.29-1h0c4.06-1.1,8.21-.77,12.34-.82a51.13,51.13,0,0,0,1.93,5,9.52,9.52,0,0,0,11,4.48c4.09-1.23,7.47-3.3,6.86-8.46l.22-3c5,2.86,10.16,2.85,13.52,0l.78,5c2.44,5.1,6.11,7.42,10.74,6.78,4.78-.67,8.21-4.75,9.08-10.8,4.71,0,9.58.66,14.09-.31C214.06,143,214.88,144.59,215.87,147.09Z"/><path class="cls-4" d="M1.18,102.1a54.22,54.22,0,0,1,.89-26c1.76,2.55,4.56,2,7,2q102,.1,204.07,0c2.34,0,5.27.73,6.91-2.09a54.05,54.05,0,0,1,.87,26.11A2.87,2.87,0,0,1,220,99.4c.47-4.84-2.58-5.73-6.26-5.14a79.17,79.17,0,0,1-23.56.06c-3.29-.45-6.89-1.08-10.15.7a113.46,113.46,0,0,0-20-5.26c-1.71-2.76-3.82-1.84-5.95-.62l-8,0c-2.15-1.52-4.23-1.55-6.2.34L122,94.09a6.92,6.92,0,0,0-5.52-1.78c-8.84,1.77-17.66,1.2-26.6,1-23.28-.51-46.57-.1-69.86-.25-3,0-5.8.86-8.86.36C3.47,92.15,3,92.72,2,100.36A6.32,6.32,0,0,1,1.18,102.1Z"/><path class="cls-5" d="M220,76c-1.64,2.82-4.57,2.09-6.91,2.09q-102,.15-204.07,0c-2.4,0-5.2.53-7-2A31.56,31.56,0,0,1,6,63c2.09,2,4.71,2.2,7.4,2.2H210.53c2.15,0,4.44.34,5.53-2.26A33.46,33.46,0,0,1,220,76Z"/><path class="cls-6" d="M206.49,45.18a15.83,15.83,0,0,1-10.78,3c-11.76-.59-23.66-.87-35.3-.47-11.32.38-22.64-.33-33.95,0-14.62.43-29.33.93-44.08-.2-13.91-1.08-28,.4-42,.58-6.06.08-12.12-.19-18.17-.48a11.53,11.53,0,0,1-6.35-2.6A58.85,58.85,0,0,1,29.08,30.17c2.15,2.4,4.82,3.07,8,3.07q73.94-.12,147.87,0c3.21,0,5.87-.67,8-3.09A64.11,64.11,0,0,1,206.49,45.18Z"/><path class="cls-7" d="M19.07,142.34A73,73,0,0,1,2.76,111.23c4.1.3,8.21.83,12.32.85,17.42.1,34.85-.11,52.27.12,7.22.09,14.14-.58,20.93-3.19,3.45-1.32,7.14-3,11-.82-5.21,5.61-10.08,11.45-12.38,19l-1.55,2.32c-1.3-2-2.89-1.16-4.32-.3a56.11,56.11,0,0,0-7,4.59,21.85,21.85,0,0,1-14.47,5.37c-11.91-.05-23.83,0-35.74,0C21.48,139.1,18.85,138.64,19.07,142.34Z"/><path class="cls-8" d="M85.33,129.46l1.55-2.32c2.84-2,6.07-2.07,9.41-2.06q53.11.09,106.22,0c3,0,6,0,8.47-2.06l2.12,4c.55,2.66,2.1,5.07,1.9,7.9-.09,1.12-.22,2.25.7,3.14a27.46,27.46,0,0,1,.17,9c-1-2.5-1.81-4.1-5.51-3.31-4.51,1-9.38.28-14.09.31-1.07-3.48-1.58-7.4-6.31-8-8.67-.81-10.74-2.15-14.29,7-3.36,2.85-8.56,2.86-13.52,0-.25-4.4-2.62-7.48-6.87-7.81-7.44-.59-10.46,1.47-12.24,7l-.86,2.78c-4.13.05-8.28-.28-12.34.82-1-7.12-4.21-10.68-9.6-10.8-8-.17-9.27.89-10.81,8.8-4.31,1.7-8.82,1.12-13.28,1.17-4.29,0-8.6-.22-12.8,1,0-1.69,0-3.37.05-5.05l.47-1.53-.15-3.37C84.26,133.92,84.79,131.69,85.33,129.46Z"/><path class="cls-9" d="M99.26,108.19c-3.84-2.22-7.53-.5-11,.82-6.79,2.61-13.71,3.28-20.93,3.19-17.42-.23-34.85,0-52.27-.12-4.11,0-8.22-.55-12.32-.85-.94-3-1.9-5.94-1.58-9.13A6.32,6.32,0,0,0,2,100.36c.93-7.64,1.45-8.21,9.15-6.94,3.06.5,5.89-.38,8.86-.36,23.29.15,46.58-.26,69.86.25,8.94.2,17.76.77,26.6-1A6.92,6.92,0,0,1,122,94.09,72.1,72.1,0,0,0,99.26,108.19Z"/><path class="cls-10" d="M97.62,178.23c3.3-1.87,6.63-2.94,10.45-1.39a11,11,0,0,0,4,.22c7.88-.05,15.8-.91,23.59-.66,7.2.24,14.45,0,21.63.16,8,.19,16.09.41,24.12.3,6.9-.09,14.07-2.24,21,.38-3.69,4.83-8.62,8.19-13.64,11.41s-5.43,5.2-2.28,10.08c1,1.52,2.3,2.83,3.36,4.31s2.92,2.25,2.94,5a37,37,0,0,1-17.36-6.75c-4.55-3.42-9.1-3.76-14.45-3a75.93,75.93,0,0,1-51.55-10.44c-2.71-1.64-5.19-3.64-7.77-5.48Z"/><path class="cls-11" d="M85.33,129.46c-.54,2.23-1.07,4.46-1.61,6.68-1.62,4.81-4.64,8.68-7.67,12.7a125.11,125.11,0,0,0-9.82,16c-2.88,5.29-6.91,8.25-13,8.2-.78-3.39-3.4-5-6.11-6.73-10.57-6.56-20.67-13.68-28-24-.22-3.7,2.41-3.24,4.71-3.24,11.91,0,23.83,0,35.74,0A21.85,21.85,0,0,0,74,133.75a56.11,56.11,0,0,1,7-4.59C82.44,128.3,84,127.51,85.33,129.46Z"/><path class="cls-12" d="M53.22,173.06c6.1.05,10.13-2.91,13-8.2a125.11,125.11,0,0,1,9.82-16c3-4,6-7.89,7.67-12.7l.15,3.37c-.16.51-.31,1-.47,1.53,0,1.68,0,3.36-.05,5.05-.43,4.6,1.69,8.88,1.75,13.42C81.68,166.09,81.33,173,83,180.09a19.92,19.92,0,0,0-9.93,4.16C64.23,191,54.12,195,43.39,197.5c-1.44.34-3.11,1.26-4.09-.29-1.09-1.73.45-3.07,1.51-4.32,2.8-3.28,5.78-6.42,8.39-9.84A18.32,18.32,0,0,0,53.22,173.06Z"/><path class="cls-9" d="M180,95c3.26-1.78,6.86-1.15,10.15-.7a79.17,79.17,0,0,0,23.56-.06c3.68-.59,6.73.3,6.26,5.14a2.87,2.87,0,0,0,.93,2.69,22.25,22.25,0,0,1-2,10c-5.85-2.09-11.5-5.48-18.1-2.91l-.85-.85-1-1.22-.07-.42c-.11-.46.07-1.28-.87-.67C192.11,102.15,186.43,98,180,95Z"/><path class="cls-13" d="M83,180.09c-1.65-7.1-1.3-14,2.12-20.58,3.66,6.59,6.63,13.63,12.52,18.72l4,4.1A74.82,74.82,0,0,1,83,180.09Z"/><path class="cls-7" d="M200.75,109.18c6.6-2.57,12.25.82,18.1,2.91-.83,5.4-3.14,10.24-5.75,15l-2.12-4A63,63,0,0,0,200.75,109.18Z"/><path class="cls-6" d="M208.39,48c-1.24-.28-2.28-.7-1.57-2.31Z"/><path class="cls-3" d="M215.7,138.09c-.92-.89-.79-2-.7-3.14A3.65,3.65,0,0,1,215.7,138.09Z"/><path class="cls-13" d="M190,136.1c4.73.59,5.24,4.51,6.31,8-.87,6-4.3,10.13-9.08,10.8-4.63.64-8.3-1.68-10.74-6.78,2.4-.59,4.81-1.15,7.21-1.78C190.06,144.66,191.55,142.23,190,136.1Z"/><path class="cls-14" d="M109.43,143.92c1.54-7.91,2.84-9,10.81-8.8,5.39.12,8.56,3.68,9.6,10.8h0l-.73.26-19.1-2.08A1.43,1.43,0,0,0,109.43,143.92Z"/><path class="cls-14" d="M143,142.32c1.78-5.57,4.8-7.63,12.24-7,4.25.33,6.62,3.41,6.87,7.81-.07,1-.15,2-.22,3-4.73.3-9.38-1.29-14.21-.16C145.48,146.49,143,145.61,143,142.32Z"/><path class="cls-13" d="M110.06,144.1l19.1,2.08a6.46,6.46,0,0,1,.44.71c-1.46,4.2-4,7.2-8.66,8C114.3,155.92,109.56,151.23,110.06,144.1Z"/><path class="cls-13" d="M143,142.32c0,3.29,2.44,4.17,4.68,3.64,4.83-1.13,9.48.46,14.21.16.61,5.16-2.77,7.23-6.86,8.46a9.52,9.52,0,0,1-11-4.48,51.13,51.13,0,0,1-1.93-5Z"/><path class="cls-14" d="M190,136.1c1.59,6.13.1,8.56-6.3,10.23-2.4.63-4.81,1.19-7.21,1.78l-.78-5C179.22,134,181.29,135.29,190,136.1Z"/><path class="cls-8" d="M129.6,146.89a6.46,6.46,0,0,0-.44-.71l.73-.26C129.8,146.24,129.7,146.56,129.6,146.89Z"/><path class="cls-15" d="M200.75,109.18A63,63,0,0,1,211,123.06c-2.48,2.11-5.47,2.06-8.47,2.06q-53.1,0-106.22,0c-3.34,0-6.57,0-9.41,2.06,2.3-7.5,7.17-13.34,12.38-19A72.1,72.1,0,0,1,122,94.09l17.78-4.63.4.06.34-.23a1.14,1.14,0,0,0,1.75,0l3.7-.13,8,0,5.95.62A113.46,113.46,0,0,1,180,95c6.45,2.94,12.13,7.13,18,11l.87.67.07.42,1,1.22Z"/><path class="cls-9" d="M159.94,89.76,154,89.14C156.12,87.92,158.23,87,159.94,89.76Z"/><path class="cls-9" d="M140.53,89.29l-.34.23-.4-.06c2-1.89,4-1.86,6.19-.34l-3.7.13Z"/><path class="cls-3" d="M83.4,141c.16-.51.31-1,.47-1.53C83.71,140,83.56,140.53,83.4,141Z"/><path class="cls-7" d="M198.86,106.69,198,106C198.93,105.41,198.75,106.23,198.86,106.69Z"/><path class="cls-7" d="M199.9,108.33l-1-1.22Z"/><path class="cls-4" d="M140.53,89.29l1.75,0A1.14,1.14,0,0,1,140.53,89.29Z"/></g></g></svg>