<svg xmlns="http://www.w3.org/2000/svg" viewBox="0 0 232.21 220.81"><defs><style>.cls-1{fill:#179ba8;}.cls-2{fill:#f6a430;}.cls-3{fill:#f59c1d;}.cls-4{fill:#346678;}.cls-5{fill:#306376;}.cls-6{fill:#1099a7;}.cls-7{fill:#1f576b;}</style></defs><g id="Calque_2" data-name="Calque 2"><g id="Calque_1-2" data-name="Calque 1"><path class="cls-1" d="M6,3.81C6.3,6.52,4.21,6.05,2.42,6.15-.15,6.28.11,4.56,0,2.87-.14.3,1.2.07,3.38,0,6.39-.09,5.91,1.81,6,3.81Z"/><path class="cls-2" d="M27.08,7.18c.44,3.75-1.13,4.79-4.93,4.89-4.1.11-4.63-1.76-4.44-4.89C17.56,3.91,18,1.92,22.39,2S27.29,3.85,27.08,7.18Z"/><path class="cls-3" d="M65.75,17.13c-3.67,2.11-7.64.63-11.46.89-1.71.11-1.42-1.42-1.44-2.52-.07-2.78-.12-5.56-.18-8.34,1.42-3.92,4.9-1,7.16-2.17,4.36-.43,6.61,1,5.75,5.87C65.22,12.88,65.67,15,65.75,17.13Z"/><path class="cls-1" d="M10.94,19c7.87.4,7.87.4,8,9.14-1.23,1.13-2.81-.19-4.09.6l-5-.4-.11-.12c-.1-2-.21-4-.31-6C9.91,21.07,9.42,19.53,10.94,19Z"/><path class="cls-4" d="M14,39.78l1,.37c2.53,1.85,5.43.5,8.12.92,0,3.32,0,6.64,0,10-11.12,0-11.12,0-11.14-10.9Z"/><path class="cls-5" d="M11.92,40.14C11.94,51,11.94,51,23.06,51c-.08.66-.15,1.31-.23,2l-7.92.07c-1.43-.61-4,1.17-4.21-2C11.76,47.5,9.49,43.56,11.92,40.14Z"/><path class="cls-6" d="M76,204.55c-1.26-2-3.29-2.87-5.22-3.91l-10.84-9.26-1.44-2.5A28.27,28.27,0,0,0,60.69,187c4.75-5.1,9.47-10.23,14.2-15.34l1.77,1.13a46.45,46.45,0,0,0,11.2,9.67c3.24,1.84,6,4.57,9.79,5.4,9.45,6.19,20.09,8,31.11,8.42,2.16.42,4.31.72,6.38-.37,5.59,0,11.19.09,16.44-2.35a70,70,0,0,0,29.13-15.75,27.08,27.08,0,0,0,6.06-6.17c8.4-8.47,13.78-18.7,17.6-29.86a47.24,47.24,0,0,0,3-14.91c.21-5.49.83-11-.45-16.42-.4-4.69-1-9.34-3.35-13.54.2-1.76-.79-3.16-1.38-4.69C196.86,78.6,187.21,68.36,176.45,59L192.54,40.9c6,3,9.8,8.41,14.69,12.62l11,15.06L220.77,73l4.86,10.88q1.6,5,3.2,10a106.58,106.58,0,0,1,1,49q-2.13,7-4.27,14-1,2.49-2.09,5l-4.28,8.38C207.94,188.3,193,202.38,173.61,211.7L165.44,215,162,216.32,150.54,219l-13.87,1.77A119.17,119.17,0,0,1,103.89,217l-1.21-.27-1.84-.38v.12c-3.29-2.25-7.16-3-10.87-4.14l-.06.11c-.37-1-1.18-1.1-2.08-1.06l.08.07c-.36-1-1.18-1.11-2.07-1.07l.07.07c-.36-1-1.18-1.1-2.07-1.06l.08.06c-.36-1-1.18-1.1-2.07-1.06l.07.14-1.12-1.09C79.64,205.74,77.84,205.11,76,204.55Z"/><path class="cls-1" d="M44.82,21.05A28.44,28.44,0,0,1,34.91,21c.4-9.25.4-9.25,9.83-8.65C44.77,15.24,44.8,18.15,44.82,21.05Z"/><path class="cls-1" d="M71,38q0-8.87-.07-17.74c4.77,0,9.55,0,14.31-.13,2.75-.1,4.22.31,4,3.72-.27,4.39.2,8.82.34,13.24a.59.59,0,0,0,0,.6C83.45,38.43,77.24,38.14,71,38Z"/><path class="cls-3" d="M192.54,40.9,176.45,59l-11.87-6.76-3.84-1.53a17.39,17.39,0,0,0-9.17-3.46A30.68,30.68,0,0,0,138,44.86c-6.14-1.94-12.22-.39-18.32.37l-13,2.43c0-7.69,0-15.11,0-22.52,0-2,.68-2.87,2.81-3.13,3.75-.47,7.45-1.35,11.17-2.06l13-.75c5.21,1.56,10.7.59,16,1.75l7,2,7.92,2,14,6.08c4.44,2.36,7.94,6.35,13.19,7.33C193,38.58,192.37,40,192.54,40.9Z"/><path class="cls-4" d="M74.89,171.65c-4.73,5.11-9.45,10.24-14.2,15.34a28.27,28.27,0,0,1-2.19,1.89l-3.71-3.19-8.92-12-1-3-.55-.87A3.71,3.71,0,0,1,42.75,167c.09-1.47.37-3-1.79-3.26-.9-1.58-2.14-3-2.16-5a10.91,10.91,0,0,0-3.8-10l-.27-1.92c1.65-1.36.71-1.8-.73-2.06a1.14,1.14,0,0,1-.15-.95l-.53-.92c-1.76-5.22-1.76-10.72-2.62-16.08a176.56,176.56,0,0,1,1-23l1-4.93c.15-.63.3-1.27.46-1.9.81-6.11,4.33-8.31,10.23-7.11a5.52,5.52,0,0,0,1.45-.11h15c2.27,1.32.24,2.67-.15,3.77-1.67,4.68-3.43,9.32-3.85,14.33-1.57,5.59-1.1,11.28-.82,17l.12,3c-.15,1.38-.25,2.76.69,4,.27,9.28,4.46,17.18,8.86,25a39.73,39.73,0,0,0,9.12,12.87Z"/><path class="cls-5" d="M38.8,158.78a1,1,0,0,0-.66-.21l-.13-.21c-.22-.58-.44-1.17-.65-1.75q-1.19-3.92-2.36-7.84A10.91,10.91,0,0,1,38.8,158.78Z"/><path class="cls-5" d="M34,144.79c1.44.26,2.38.7.73,2.06A2.14,2.14,0,0,1,34,144.79Z"/><path class="cls-5" d="M33.32,142.92l.53.92Z"/><path class="cls-5" d="M59.81,39.9C70,40.45,70,40.45,70,50.8a14.65,14.65,0,0,0,0,2.48c.63,3.85-.86,5.4-4.81,4.86a30.84,30.84,0,0,0-5.42.16c-4-.36-9.59,1.21-8.07-6.28,0-1.15.12-2.31.13-3.46C51.89,40.37,51.88,40.37,59.81,39.9Z"/><path class="cls-4" d="M47.84,77.79l-15,0c-.21-.47-.5-.57-.88-.16-1.51-5.34-.42-10.78-.53-16.17-.05-2,1.85-1.42,3-1.46,3.45-.1,6.9-.1,10.35-.14h2l.47.08.46-.11c.55.21,1.17.35,1.12,1.15-.41.11-1.16.22-1.17.35,0,.87.74.51,1.2.64a70.78,70.78,0,0,1,0,14C47.42,75.87,47.09,76.51,47.84,77.79Z"/><path class="cls-1" d="M44.8,54.84c-1.81,0-3.62.11-5.43.12-7.44,0-7.52,0-7.37-7.65,0-1.77-1.18-4.72,1.14-5.14,3.61-.64,7.55-1,11.12.28,1.29.45.47,2.71.57,4.14C45,48.39,45,50.2,45,52,44.93,53,44.86,53.9,44.8,54.84Z"/><path class="cls-1" d="M31.71,32.17c-.68-2.94-.23-4.81,3.45-4.39,2.8.32,6.28-.92,5.7,4.16-.32,2.76.58,5.54-4.07,5.34C33,37.11,30.52,36.69,31.71,32.17Z"/><path class="cls-5" d="M23,40c0,.34,0,.69,0,1-2.69-.42-5.59.93-8.12-.92Z"/><path class="cls-7" d="M49,76l-.12,2-1-.17C47.09,76.51,47.42,75.87,49,76Z"/><path class="cls-7" d="M32,77.67c.38-.41.67-.31.88.16l-.47.11Z"/><path class="cls-3" d="M61.74,37,52.9,37c-.22-9.13-.22-9.13,8.86-8.79C61.75,31.15,61.75,34.1,61.74,37Z"/><path class="cls-2" d="M89.72,46.05c0,3.08-.25,6.16-.1,9.23.08,1.6-.26,2.48-1.86,2.73l-2.46-.25c-2.75-.28-7,1.3-7.93-.84-1.37-3.05-.54-7.11-.57-10.74,0-2,1.5-1.83,2.83-1.85l8.8-.08Z"/><path class="cls-5" d="M42.75,167A4.85,4.85,0,0,1,41,163.74C43.12,164,42.84,165.53,42.75,167Z"/><path class="cls-5" d="M44.83,170.71l-.59-.25a1.84,1.84,0,0,0,0-.62C44.47,170.13,44.65,170.42,44.83,170.71Z"/><path class="cls-7" d="M48.92,61l0,1c-.46-.13-1.22.23-1.2-.64C47.76,61.24,48.51,61.13,48.92,61Z"/></g></g></svg>