<svg xmlns="http://www.w3.org/2000/svg" viewBox="0 0 209.82 210.89"><defs><style>.cls-1{fill:#2c5fa8;}.cls-2{fill:#2b5ea8;}.cls-3{fill:#2d5fa8;}</style></defs><g id="Calque_2" data-name="Calque 2"><g id="Calque_1-2" data-name="Calque 1"><path class="cls-1" d="M209.82,78.92c-1.7.77-1.39,2.55-1.72,3.86-10.4,41.8-53.88,63.56-93.28,46.58-2.42-1.05-4.32-1.37-6.9-.08-3.62,1.8-7.48.89-11-1A41,41,0,0,1,82,113.89c-2.22-3.44-2.94-7.23.09-10.59,1.94-2.16.41-3.66-.42-5.33A67.69,67.69,0,0,1,123.62,2.46c2.44-.71,5.29-.36,7.27-2.46h21c.35,1,1.26.85,2,1q42.87,9.18,54.28,51.53c.4,1.46-.18,3.43,1.63,4.4ZM196.29,67.21a55.28,55.28,0,1,0-54.82,55.66A55.42,55.42,0,0,0,196.29,67.21Z"/><path class="cls-2" d="M0,188.82Q37.56,153.42,75.08,118c1.9-1.8,2.68-1.41,4,.54,3.62,5.22,7.76,10,13.24,13.38,3.38,2.08.43,3.29-.62,4.42q-19.45,20.74-39,41.36-14,14.87-28.09,29.74c-3.83,4-6.85,4.48-11.94,1.65C6.79,205.82,3.12,200.55,0,194.81Z"/><path class="cls-3" d="M112.06,48.94c-3.53-.2-6.4-.32-7.8-3-1.28-2.43-.36-5,1.19-7A41.4,41.4,0,0,1,136.3,22c2.53-.2,5.14.26,6.45,2.81s.33,4.95-1.18,7C134,42.05,123.53,47.08,112.06,48.94Z"/></g></g></svg>