<svg xmlns="http://www.w3.org/2000/svg" viewBox="0 0 230.26 284.09"><defs><style>.cls-1{fill:#0a0a0a;}.cls-2{fill:#ef7c29;}.cls-3{fill:#f2972b;}.cls-4{fill:#0f1010;}.cls-5{fill:#ef8629;}.cls-6{fill:#f08825;}.cls-7{fill:#f08d2a;}.cls-8{fill:#de8d52;}.cls-9{fill:#db832e;}.cls-10{fill:#131414;}.cls-11{fill:#f08526;}.cls-12{fill:#e17325;}</style></defs><g id="Calque_2" data-name="Calque 2"><g id="Calque_1-2" data-name="Calque 1"><path class="cls-1" d="M208.57,152.35c-3.53-4.65-6.47-.22-9.75,1.17-2.07.89-3.91,1.75-2.87,4.72.55,1.57-.42,2.84-2.16,3.3-2.89.77-5.75,1.61-8.65,2.35a3,3,0,0,1-3.07-1.2c-4.13-4.78-9.72-4.76-13.76,0a2.66,2.66,0,0,1-2.58,1.19c-3.23-.76-6.43-1.65-9.62-2.56a2.06,2.06,0,0,1-1.69-2.2c1.21-6.86-5.91-5.74-8.51-8.93-.17-.2-1-.15-1.29.08-1.54,1.17-3,3.32-5.1,1.52a91.19,91.19,0,0,1-7.57-7.9,1.91,1.91,0,0,1,0-1.84c5-5.24-2.15-7.83-2.59-11.87,0-.3-.75-.78-1.12-.75-1.92.13-4.38,1.26-5.32-1.13a71,71,0,0,1-2.6-10.08c-.24-1,.27-2.33,1.23-2.47,4.77-.73,2.94-4.25,3-6.89s1.41-6.13-3.19-7c-1.19-.21-1.31-1.84-1-3,.67-2.91,1.42-5.81,2.16-8.7.33-1.26,1.23-2.21,2.48-2,6.8,1.12,5.76-5.95,9-8.53.18-.14.06-1-.17-1.25-1.21-1.53-3.23-3-1.52-5.14a31.48,31.48,0,0,1,7.86-7.54,2,2,0,0,1,1.85,0c5.25,5.07,7.81-2.13,11.84-2.57.29,0,.71-.74.71-1.13,0-1.9-1.22-4.39,1.23-5.33a65.54,65.54,0,0,1,10.07-2.6A2.44,2.44,0,0,1,168,55c2.09,6.62,7.63,2.25,11.34,3.59a1.88,1.88,0,0,0,1.69-.69c.58-1.72.8-4.11,3.13-3.78a71.92,71.92,0,0,1,10.55,2.7,2.36,2.36,0,0,1,1.2,2c-1.36,7,6.11,5.61,8.53,9,.12.16.95.06,1.24-.17,1.53-1.22,3-3.3,5.11-1.49a93.69,93.69,0,0,1,7.6,7.83,1.89,1.89,0,0,1,0,1.87c-5.29,5.27,2.31,7.81,2.51,11.89,0,.24.81.64,1.23.63,1.92,0,4.37-1.1,5.29,1.35a71.76,71.76,0,0,1,2.59,10.09,2.45,2.45,0,0,1-1,2.12c-6.71,2.36-2.06,8-3.49,11.85a1,1,0,0,0,.35.86c7.69,2,2.81,7,2.43,10.78-.27,2.73-1.42,5.31-5.2,4.11-1.38-.44-2.24.24-2.62,1.56-1.09,3.73-6.63,6.7-2,11.44.09.09.05.32.05.49C218.61,145,211,152.5,208.57,152.35ZM175,135.09c14.06.16,26.07-11.68,26.29-25.92.22-14-11.76-26.1-26-26.27s-26.1,11.67-26.25,25.93C149,122.94,160.81,134.94,175,135.09Z"/><path class="cls-2" d="M22.24,277.46l-.81-.76a1.06,1.06,0,0,0-1.12-1.13,1,1,0,0,0-.91-1.13l0,0q-2.76-7.11-5.51-14.22c0-1.32.05-2.64.08-4,2.66-3.29,3.26-7.37,4.36-11.26l.28.21-.29-.2c1.29-.16,2.06-.75,1.8-2.18l.21.22-.16-.26c1.22.21,1.4-.59,1.46-1.5l0,0c.91-.07,1.7-.26,1.45-1.48l.06-.05c1.87.27,2.29-.95,2.49-2.41l0,0a4.39,4.39,0,0,0,3.94-4l0,0a30.72,30.72,0,0,0,12-12l0,0,1.92-.11c0,2.18,2.5,3.37,2.51,5.3,0,5.77,3.56,5.92,8,5.86,6.59-.09,9,4.14,6.85,10.62-.9,2.69-3.35,5.95.92,8.21,2.13,1.85,4.61,2.29,7.39,2.28,31.13-.06,62.25-.1,93.37.06a15.09,15.09,0,0,0,10.74-4.31,7.25,7.25,0,0,0,3.25-6.95,7.71,7.71,0,0,1,4.7,1.15c4.67,3.26,6.15,2.61,8.1-2.86,2-5.66,1.9-12.21,8.61-15.71,2.76-1.44,2.7-.78,3.6,1.19,1.09,2.38-.44,5.83,3,7.24l.06,12q-1.89,8.1-3.76,16.19l-.11-.26.13.25c-2.54.74-3,2.77-3.09,5l0-.06c-2.25.63-3.43,2.58-4.89,4.11-7.78,8.16-17.29,11.86-28.52,11.83-35.45-.07-70.9,0-106.34-.06C45.94,282.29,33.48,284.23,22.24,277.46Zm142-22.32.19-.48H66.94v.48Z"/><path class="cls-3" d="M1.52,248.22A4.36,4.36,0,0,1,0,252v-6.39L0,121.72C0,96.64,17.27,78.8,42.43,78.5c26-.32,51.93-.1,77.9-.07,1.24,0,2.67-.42,3.92,1-11,5.83-12.62,15.39-10.42,26.39-1.32,2.25-3.53,1.47-5.41,1.48-21,0-41.89,0-62.84.08-1.64,0-3.75-1-4.87,1.29-8.53,3.44-10,5.56-10,14.9,0,28.06,0,56.13,0,84.19,0,1.87.86,4-.92,5.62-.52-22.07.62-44.17-.93-66.25-.29-4.1-1.52-5.16-5.25-4.85-5.8.47-10.63,2.16-13,8.12-.73,1.82-1.65,3.88-3.12,5-1.8,1.39-3.08,5.72-6.73,2.4,0,28.77,0,57.71,0,86.65C.68,245.76.36,247.17,1.52,248.22Z"/><path class="cls-4" d="M183.58,2.45l1.81-1.25-.17.12a1,1,0,0,1,1.56-.18,1.64,1.64,0,0,0,.78.22c1.42,0,2.87-.06,2.74,2-.1.1-.3.24-.28.31a3.86,3.86,0,0,0,.36.7l.14.25a1.41,1.41,0,0,0,.6.61l2.49,1.38c1.66,2,4.59,3.13,3.42,6.72-.33,1,1.4.88,2.3,1l1.24,1.13c-.23,1.9.63,4-.86,5.69-2.41,2.76-.5,4,1.75,5.2l.08,0,0,3.92-.36,1c-.89,0-1.85-.15-2.54.66-1.92,1.68-1,4.39-2.28,6.3-1.63,1.64-5.28-3.51-5.82,1.73-1.08,1.07-2.95,1.37-3.16,3.28-.8-.5-1.23-2.12-2.57-1s.77,1.16.72,1.91c-1.8.73-3.22.53-3.9-1.55-.14-1.19-.51-2.15-1.95-2.22s-2,.67-2.11,2c-2.53,3.71-4.64,1.71-6-.81a27.17,27.17,0,0,0-2-2.56l-.92-.69c-3.6.61-6.08,0-5.32-4.57.29-1.78-.82-3-2-4.34-1.52.9-.32,2.11-.54,3.06-.53,2.23,1.62,5.28-2.55,6.5-.9.27-2,3.75-1.17,5.9,1.77,4.8.84,6.32-4,7.85a6.63,6.63,0,0,0-4.3,5c-.8,4.63-2.66,5.77-7.44,4.72a6,6,0,0,0-6.41,2.43c-2.23,3.19-5.95,3.4-8.44.41a5.65,5.65,0,0,0-6.59-1.66c-4.33,1.6-6.6.4-7.74-4A6.17,6.17,0,0,0,107,55.15c-4.06-.59-6.06-3.38-4.75-7a5.73,5.73,0,0,0-1.75-6.54c-3.62-3-3.86-5.54-.49-8.81a6.2,6.2,0,0,0,1.46-6.41c-1.56-4.81-.7-6.57,4-8a6.27,6.27,0,0,0,4.35-4.77c.9-4.79,3-6.19,7.4-4.86a6,6,0,0,0,6.19-1.87c3.19-3.59,5.44-3.75,8.92-.54a6.19,6.19,0,0,0,6.33,1.39c4.46-1.66,6.61-.57,7.94,4.05a6.08,6.08,0,0,0,4.84,4.35c4.67.79,6.27,3.12,4.84,7.33-.79,2.34.3,4.52,1.9,6.13.81.81,1.24-.44,1.44-1.23,1.54-1.16.84-1.69-.57-2,3.33-3.92-1.41-9,1.86-12.93,2.45,1.31,4.36.61,4.6-2.08.27-3,2-4.64,4.25-6a1,1,0,0,1,.75,0l1.09-.67.88-.34,1.2-.76.14-.15.81-2c1.85-.95,3.8-2.86,5.14.59-.06,1.2.21,2.16,1.66,2.28A1.81,1.81,0,0,0,183.58,2.45Zm3.95,28.44,2.34-2.53c3.6-.09,3.71-2.76,3.64-5.25,0-1.83,1.18-4.73-2.61-4.51l-2.45-3.91c0-1.12,0-2.24-1.32-2.64-.68-.21-1.11.3-1.34.92l-5.23-1.49c-.14-.79,2-1.81.56-1.89-2.21-.1-5.47-.4-5.55,3.5l-1.8,1.34c-4.25-1.28-3.06,1.5-2.72,3.64l-1.22,2.64V24c.21.65.43,1.3.64,1.94.28.47.56.93.85,1.39l.79,1.16c-.88,2.58.69,2.87,2.63,2.8l3.84,1.83c0,2.12,1.77,2.82,3,2.09C183.67,34,187.73,35.22,187.53,30.89ZM129.21,50.37A14.94,14.94,0,0,0,144.3,35.74c.14-7.82-6.9-15-14.85-15.09a15,15,0,0,0-14.9,14.83A14.55,14.55,0,0,0,129.21,50.37Z"/><path class="cls-5" d="M61.84,251.2c-4.27-2.26-1.82-5.52-.92-8.21,2.16-6.48-.26-10.71-6.85-10.62-4.4.06-7.92-.09-8-5.86,0-1.93-2.49-3.12-2.51-5.29.55-1.36,2.18-2.15,2-3.87l0,0a4.3,4.3,0,0,0,4-4h0a14,14,0,0,0,8-8h0c.91-.09,1.73-.26,1.43-1.5l.12-.08c.77.2,1-.09.89-.85l.11-.1c.77.16,1.06-.15.89-.9l.12-.1c.75.16,1.06-.14.93-.89l.07-.06c.76.12,1.07-.19.92-.94l.08-.07c.76.13,1.06-.18.92-.93l.08-.07c.76.13,1.06-.18.92-.93l.21.16-.16-.21c4.3-1.24,5.36-4.54,5.39-8.5l-.76-1c-.35-1.34-.69-2.68-1-4,.44-.24.89-.69,1.31-.67,5.24.22,8.7-1.58,10.19-7.13.68-2.52,3.39-2.71,5.88-1.46,2.19,1.09,4.27,2.66,7,2.14v.29l-.28.1.79,1.71c0,.31,0,.62.08.93.27,2.86-2.54,7.09,3.32,7.47v.09c2,4.51,6.52,2,9.68,3.36l0,0c5.91,3.59,8.79,2.79,11.55-3.22l0,0c2.77-.18,5.56-.27,8.31-.59,3.18-.37,8.55-6.47,7.86-9.64-.94-4.37,1.49-3.46,3.77-2.94,4,.92,5.46,3.8,4.24,7.45-1.87,5.58-.91,12.41-7,16.28-1.33.84-.75,2.74-.43,4.21v-.13a1.35,1.35,0,0,0-1.15,1.42c-9.29,10.82-21.33,14.26-34.87,11.86-5.64-1-9.31,0-13.12,4.18-6.74,7.33-13.9,14.28-21.11,21.16C61.56,244.06,60,247.06,61.84,251.2Z"/><path class="cls-6" d="M1.52,248.22c-1.16-1.05-.84-2.46-.84-3.75,0-28.94,0-57.88,0-86.65,3.65,3.32,4.93-1,6.73-2.4,1.47-1.14,2.39-3.2,3.12-5,2.37-6,7.2-7.65,13-8.12,3.73-.31,5,.75,5.25,4.85,1.55,22.08.41,44.18.93,66.25-4.16,5.62-9.41,10.21-14.41,15C9.31,234.1,4.44,240.44,1.52,248.22Zm1.19-70.64c.89-4.22,1.36-8.44-.16-12.58A22.25,22.25,0,0,0,2.71,177.58ZM1.59,191.91c1.32-1.26,1.21-2.94.32-5.78C1.76,188.81,1.68,190.36,1.59,191.91Z"/><path class="cls-7" d="M93.13,177.21c-2.7.52-4.78-1.05-7-2.14-2.49-1.25-5.2-1.06-5.88,1.46-1.49,5.55-5,7.35-10.19,7.13-.42,0-.87.43-1.31.67l-.83-2A37.94,37.94,0,0,1,114,141.14c4.34,1,4.93,2.74,1.74,6-6.15,6.32-12.28,12.68-18.74,18.68C93.49,169.1,91.61,172.45,93.13,177.21Z"/><path class="cls-8" d="M22.24,277.46c11.24,6.77,23.7,4.83,35.83,4.86,35.44.1,70.89,0,106.34.06,11.23,0,20.74-3.67,28.52-11.83,1.46-1.53,2.64-3.48,4.89-4.11-6,9.91-15.29,14.84-26.26,17.1a35.06,35.06,0,0,1-6.95.55q-62.66,0-125.29-.09C32.88,284,26.76,282.69,22.24,277.46Z"/><path class="cls-7" d="M134.92,202.61c-.32-1.47-.9-3.37.43-4.21,6.11-3.87,5.15-10.7,7-16.28,1.22-3.65-.2-6.53-4.24-7.45-2.28-.52-4.71-1.43-3.77,2.94.69,3.17-4.68,9.27-7.86,9.64-2.75.32-5.54.41-8.31.59,6.45-6.62,12.89-13.27,19.37-19.86,2.92-3,4.78-1.66,5.42,1.78C145.24,181.89,143.48,193.1,134.92,202.61Z"/><path class="cls-9" d="M176.59,242.28a7.25,7.25,0,0,1-3.25,6.95c1.74-3.5,2.06-7.2,2-11.08-.09-21.44,0-42.88,0-64.32v-6.05c9.17,7.08,17,2.17,25-.73l.31.3c-7.22,5.57-15.11,7.16-24,3.87Z"/><path class="cls-9" d="M204.62,245.32l-.06-12q0-32.37,0-64.74c0-2,.74-5.09-2.94-2.2l-.31-.31,3.24-6.39,1,.17v85.47C205.21,245.29,204.91,245.3,204.62,245.32Z"/><path class="cls-9" d="M40.71,108.67c1.12-2.31,3.23-1.28,4.87-1.29,21-.07,41.89,0,62.84-.08,1.88,0,4.09.77,5.41-1.48.78.7,2.15,1.06,1.45,2.59-14.4,0-28.8-.13-43.2-.1-9.75,0-19.5.22-29.25.34Z"/><path class="cls-3" d="M42.83,108.65c9.75-.12,19.5-.32,29.25-.34,14.4,0,28.8.06,43.2.1-.31,1.45-1.45.62-2.1.62q-33.71.09-67.43,0A20.93,20.93,0,0,1,42.83,108.65Z"/><path class="cls-8" d="M41.65,221.36a30.72,30.72,0,0,1-12,12A51.28,51.28,0,0,1,41.65,221.36Z"/><path class="cls-10" d="M201.46,26.38c-2.25-1.17-4.16-2.44-1.75-5.2,1.49-1.7.63-3.79.86-5.69,3.65.86,2.91,3.76,1.72,5.52A5.52,5.52,0,0,0,201.46,26.38Z"/><path class="cls-8" d="M13.91,260.26q2.75,7.11,5.51,14.22A17.7,17.7,0,0,1,13.91,260.26Z"/><path class="cls-8" d="M68,182.38l.83,2c.35,1.33.69,2.67,1,4l.76,1c0,4-1.09,7.26-5.39,8.5C70.53,193.49,68.39,187.78,68,182.38Z"/><path class="cls-8" d="M204.62,245.32c.29,0,.59,0,.89,0a27.43,27.43,0,0,1-4.65,16.22Q202.74,253.41,204.62,245.32Z"/><path class="cls-10" d="M169.71,5.3c-2.29,1.39-4,3-4.25,6-.24,2.69-2.15,3.39-4.6,2.08,2.5-.77,3.88-2.09,3.93-5.07C164.85,5.51,166.38,3.58,169.71,5.3Z"/><path class="cls-8" d="M18.35,245c-1.1,3.89-1.7,8-4.36,11.26A15,15,0,0,1,18.35,245Z"/><path class="cls-10" d="M199.33,14.36c-.9-.12-2.63,0-2.3-1,1.17-3.59-1.76-4.77-3.42-6.72,3.68-1.13,5.29.69,4.95,4.05C198.4,12.18,199.21,13.12,199.33,14.36Z"/><path class="cls-8" d="M57.64,205.34a14,14,0,0,1-8,8A23.26,23.26,0,0,1,57.64,205.34Z"/><path class="cls-7" d="M118.23,187.89c-2.76,6-5.64,6.81-11.55,3.22C111.11,192.1,115,191.22,118.23,187.89Z"/><path class="cls-7" d="M97.05,187.71c-5.86-.38-3-4.61-3.32-7.47Z"/><path class="cls-10" d="M190.57,40c.54-5.24,4.19-.09,5.82-1.73C195.21,41.44,192.62,39.84,190.57,40Z"/><path class="cls-7" d="M106.72,191.16c-3.16-1.31-7.63,1.15-9.68-3.36C100.17,189.22,103.83,189.06,106.72,191.16Z"/><path class="cls-10" d="M177.6,42.4c.09-1.3.7-2,2.11-2s1.81,1,1.95,2.22Z"/><path class="cls-8" d="M45.65,217.35c.13,1.72-1.5,2.51-2,3.87l-1.92.1A6.28,6.28,0,0,1,45.65,217.35Z"/><path class="cls-8" d="M29.65,233.34a4.39,4.39,0,0,1-3.94,4A6.33,6.33,0,0,1,29.65,233.34Z"/><path class="cls-8" d="M197.79,266.5c.12-2.23.55-4.26,3.09-5C200.36,263.48,199.63,265.33,197.79,266.5Z"/><path class="cls-8" d="M49.64,213.33a4.3,4.3,0,0,1-4,4A7.39,7.39,0,0,1,49.64,213.33Z"/><path class="cls-10" d="M183.58,2.45a1.81,1.81,0,0,1-2.2,1.81c-1.45-.12-1.72-1.08-1.66-2.28Z"/><path class="cls-10" d="M185.56,44.2c.05-.75-2.17-.73-.72-1.91s1.77.52,2.57,1C187.2,44.45,186.36,44.29,185.56,44.2Z"/><path class="cls-8" d="M25.67,237.37c-.2,1.46-.62,2.68-2.49,2.41C23.63,238.58,24.25,237.57,25.67,237.37Z"/><path class="cls-10" d="M159,26.34c1.41.32,2.11.85.57,2Z"/><path class="cls-10" d="M201.57,30.33l0-3.92C203.86,27.71,202.34,29,201.57,30.33Z"/><path class="cls-8" d="M20.14,242.87c.26,1.43-.51,2-1.8,2.18A2.5,2.5,0,0,1,20.14,242.87Z"/><path class="cls-10" d="M198.67,32c.69-.81,1.65-.63,2.54-.66C200.6,32.47,199.52,31.8,198.67,32Z"/><path class="cls-8" d="M23.12,239.83c.25,1.22-.54,1.41-1.45,1.48A1.85,1.85,0,0,1,23.12,239.83Z"/><path class="cls-8" d="M21.65,241.33c-.06.91-.24,1.71-1.46,1.5A1.85,1.85,0,0,1,21.65,241.33Z"/><path class="cls-8" d="M59.09,203.83c.3,1.24-.52,1.41-1.43,1.5A1.9,1.9,0,0,1,59.09,203.83Z"/><path class="cls-10" d="M174.58,1.39l-.81,2C174.06,2.73,173.33,1.66,174.58,1.39Z"/><path class="cls-8" d="M19.4,274.44a1,1,0,0,1,.91,1.14Z"/><path class="cls-8" d="M20.31,275.57a1.06,1.06,0,0,1,1.12,1.13C21.05,276.33,20.68,276,20.31,275.57Z"/><path class="cls-8" d="M64.14,198.91c.14.75-.16,1.06-.92.93Z"/><path class="cls-8" d="M63.14,199.91c.15.75-.16,1.06-.92.94Z"/><path class="cls-8" d="M62.15,200.91c.13.75-.18,1.05-.93.89Z"/><path class="cls-8" d="M61.1,201.9c.17.75-.12,1.06-.89.9Z"/><path class="cls-8" d="M60.1,202.9c.16.76-.12,1-.89.85Z"/><path class="cls-7" d="M93.65,179.31l-.79-1.71A1.44,1.44,0,0,1,93.65,179.31Z"/><path class="cls-10" d="M191.12,5.26a1.41,1.41,0,0,1-.6-.61A.65.65,0,0,1,191.12,5.26Z"/><path class="cls-10" d="M171.55,4.64l-1.09.67Z"/><path class="cls-10" d="M190.38,4.4a3.86,3.86,0,0,1-.36-.7c0-.07.18-.21.28-.31Z"/><path class="cls-10" d="M173.63,3.54l-1.2.76Z"/><path class="cls-7" d="M133.76,203.9a1.35,1.35,0,0,1,1.15-1.42C134.53,203,134.14,203.43,133.76,203.9Z"/><path class="cls-10" d="M187.56,1.36a1.64,1.64,0,0,1-.78-.22A.5.5,0,0,1,187.56,1.36Z"/><path class="cls-10" d="M185.22,1.32l.17-.12Z"/><path class="cls-9" d="M200.31,167.05c.33-.34.66-.68,1-1l.31.31-1,1Z"/><path class="cls-10" d="M168.62,38.34l.92.69Z"/><path class="cls-8" d="M65.14,197.91c.14.75-.16,1.06-.92.93Z"/><path class="cls-11" d="M200.62,167.35l1-1c3.68-2.89,2.94.23,2.94,2.2q0,32.37,0,64.74c-3.4-1.41-1.87-4.86-3-7.24-.9-2-.84-2.63-3.6-1.19-6.71,3.5-6.6,10-8.61,15.71-1.95,5.47-3.43,6.12-8.1,2.86a7.71,7.71,0,0,0-4.7-1.15V171.22C185.51,174.51,193.4,172.92,200.62,167.35Z"/><path class="cls-12" d="M164.26,255.14H66.94v-.48h97.51Z"/><path class="cls-10" d="M189.87,28.36a12.17,12.17,0,0,0,1-9.76c3.79-.22,2.56,2.68,2.61,4.51C193.58,25.6,193.47,28.27,189.87,28.36Z"/><path class="cls-10" d="M178.58,33.11a14.77,14.77,0,0,0,8.95-2.21c.2,4.32-3.86,3.08-5.93,4.3C180.35,35.93,178.62,35.23,178.58,33.11Z"/><path class="cls-10" d="M180.56,11.48l-5,1.61c.08-3.9,3.34-3.6,5.55-3.5C182.56,9.67,180.42,10.69,180.56,11.48Z"/><path class="cls-10" d="M173.77,14.43l-2.72,3.64C170.71,15.93,169.52,13.15,173.77,14.43Z"/><path class="cls-10" d="M172.11,28.48l2.63,2.8C172.8,31.35,171.23,31.06,172.11,28.48Z"/><path class="cls-10" d="M188.45,14.69,185.79,13c.23-.62.66-1.13,1.34-.92C188.41,12.45,188.47,13.57,188.45,14.69Z"/><path class="cls-10" d="M169.83,20.71a2.53,2.53,0,0,1,0,3.28Z"/><path class="cls-10" d="M170.47,25.93c.28.47.56.93.85,1.39Z"/><path class="cls-7" d="M70.58,189.36l-.76-1Z"/><path class="cls-3" d="M2.71,177.58A22.25,22.25,0,0,1,2.55,165C4.07,169.14,3.6,173.36,2.71,177.58Z"/><path class="cls-3" d="M1.59,191.91c.09-1.55.17-3.1.32-5.78C2.8,189,2.91,190.65,1.59,191.91Z"/></g></g></svg>